<svg width="32" height="32" viewBox="0 0 32 32" fill="none" xmlns="http://www.w3.org/2000/svg">
<path fill-rule="evenodd" clip-rule="evenodd" d="M32 0H0V32H32V0ZM13.4228 5.50214C13.0223 5.49804 12.6355 5.65739 12.3536 5.93932L12.3405 5.95236L12.3275 5.96539L12.3145 5.97843L12.3014 5.99147L12.2753 6.01756L12.2688 6.02408L12.2623 6.0306L12.2492 6.04365L12.1449 6.14798L12.0407 6.25219L11.9367 6.35615L11.5259 6.76695L11.5196 6.77328L11.5133 6.7796L11.507 6.78592L11.5007 6.79224L11.4943 6.79855L11.488 6.80486L11.4817 6.81117L11.4754 6.81747L11.4691 6.82377L11.4628 6.83006L11.4565 6.83635L11.4503 6.84264L11.444 6.84892L11.4377 6.8552L11.4314 6.86148L11.4251 6.86775L11.4189 6.87401L11.4126 6.88028L11.4064 6.88654L11.4001 6.89279L11.3938 6.89904L11.3876 6.90529L11.3814 6.91153L11.3751 6.91777L11.3689 6.92401L11.3627 6.93024L11.3564 6.93646L11.3502 6.94268L11.344 6.9489L11.3378 6.95511L11.3316 6.96132L11.3254 6.96753L11.3192 6.97373L11.313 6.97992L11.3068 6.98611L11.3006 6.9923L11.2944 6.99848L11.2882 7.00466L11.2821 7.01083L11.2759 7.017L11.2697 7.02316L11.2636 7.02932L11.2574 7.03547L11.2513 7.04162L11.2451 7.04776L11.239 7.0539L11.2329 7.06003L11.2267 7.06616L11.2206 7.07229L11.2145 7.0784L11.2084 7.08452L11.2023 7.09063L11.1962 7.09673L11.1901 7.10283L11.184 7.10892L11.1779 7.11501L11.1718 7.12109L11.1657 7.12717L11.1597 7.13324L11.1536 7.13931L11.1475 7.14537L11.1415 7.15143L11.1354 7.15748L11.1294 7.16352L11.1233 7.16956L11.1173 7.1756L11.1113 7.18163L11.1052 7.18765L11.0992 7.19367L11.0932 7.19968L11.0872 7.20569L11.0812 7.21169L11.0752 7.21768L11.0692 7.22367L11.0632 7.22965L11.0573 7.23563L11.0513 7.2416L11.0453 7.24757L11.0394 7.25353L11.0334 7.25948L11.0275 7.26543L11.0215 7.27137L11.0156 7.27731L11.0097 7.28324L11.0037 7.28916L10.9978 7.29508L10.9919 7.30099L10.986 7.3069L10.9801 7.3128L10.9742 7.31869L10.9683 7.32458L10.9624 7.33046L10.9566 7.33633L10.9507 7.3422L10.9448 7.34806L10.939 7.35392L10.7552 7.53768L10.4116 7.88124L10.3315 7.96139L10.2924 8.00052L10.2875 8.00536L10.2827 8.0102L10.2779 8.01502L10.2731 8.01984L10.2683 8.02464L10.2635 8.02943L10.2539 8.03899L10.179 8.11391L10.1744 8.1185L10.1698 8.12308L10.1652 8.12764L10.1607 8.1322L10.1561 8.13675L10.1516 8.14128L10.1471 8.14581L10.1426 8.15032L10.1069 8.18602L10.0719 8.22098L10.0547 8.23818L10.0377 8.25519L10.0043 8.28863L9.9716 8.3213L9.93973 8.35316L9.9358 8.35709L9.93189 8.361L9.92799 8.3649L9.9241 8.36879L9.92023 8.37267L9.91636 8.37653L9.90868 8.38421L9.87846 8.41444L9.87103 8.42186L9.86366 8.42923L9.84908 8.44381L9.74036 8.55254L9.69149 8.60141L9.67986 8.61303L9.67414 8.61875L9.6713 8.62159L9.66848 8.62441L9.66567 8.62722L9.66288 8.63001L9.65734 8.63555L9.65186 8.64103L9.64645 8.64645L9.5 8.79289V9V19V25.5C9.5 26.499 10.7078 26.9993 11.4142 26.2929L13.0607 24.6464C13.342 24.3651 13.5 23.9836 13.5 23.5858V19.5H16V19C16 19.5 16.0003 19.5 16.0006 19.5L16.0014 19.5L16.0034 19.5L16.0093 19.5L16.0287 19.4997C16.0449 19.4994 16.0677 19.4989 16.0965 19.4979C16.154 19.4958 16.236 19.4918 16.3389 19.4839C16.5446 19.4682 16.8348 19.437 17.1816 19.375C17.8731 19.2515 18.8019 19.0037 19.7361 18.5032C20.6729 18.0014 21.6199 17.2426 22.3308 16.1001C23.0426 14.956 23.5 13.4557 23.5 11.5C23.5 9.64179 22.8342 8.10955 21.1645 7.06675C19.546 6.05588 17.0356 5.5392 13.4228 5.50214ZM10.5 19.5H12.5V23.5858C12.5 23.7184 12.4473 23.8456 12.3536 23.9393L10.7071 25.5858C10.6307 25.6622 10.5 25.6081 10.5 25.5V19.5ZM13 18.5H11.2071L13.2071 16.5H17.9469C17.5257 17.0053 17.0803 17.4444 16.6954 17.7903C16.411 18.046 16.1627 18.2479 15.9866 18.3853C15.9281 18.4308 15.8777 18.4692 15.8366 18.5H13ZM18.6763 15.5H13.5V9.5H16C16.5867 9.5 17.4778 9.68011 18.2078 10.2058C18.9124 10.7131 19.5 11.563 19.5 13C19.5 13.8571 19.1692 14.71 18.6763 15.5ZM10.5 9.5H12.5V15.7929L10.5 17.7929V9.5ZM13 8.5H11.2071L11.2118 8.49529L11.2223 8.48477L11.2276 8.4795L11.2329 8.47421L11.2435 8.46362L11.2488 8.45831L11.2541 8.45299L11.2594 8.44767L11.2648 8.44233L11.2701 8.43699L11.2755 8.43164L11.2808 8.42628L11.2862 8.42091L11.4623 8.24479L11.4679 8.23916L11.4736 8.23352L11.4792 8.22787L11.4849 8.22222L11.4906 8.21655L11.4962 8.21089L11.5019 8.20521L11.5076 8.19953L11.5133 8.19383L11.519 8.18814L11.5247 8.18243L11.5304 8.17672L11.5361 8.171L11.5418 8.16527L11.5476 8.15954L11.5533 8.1538L11.5591 8.14805L11.5648 8.1423L11.5706 8.13654L11.5763 8.13077L11.5821 8.12499L11.5879 8.11921L11.5937 8.11342L11.5995 8.10763L11.6053 8.10182L11.6111 8.09601L11.6169 8.0902L11.6227 8.08438L11.6286 8.07855L11.6344 8.07271L11.6402 8.06687L11.6461 8.06102L11.6519 8.05517L11.6578 8.04931L11.6637 8.04344L11.6695 8.03757L11.6754 8.03168L11.6813 8.0258L11.6872 8.01991L11.6931 8.01401L11.699 8.0081L11.7049 8.00219L11.7108 7.99627L11.7168 7.99035L11.7227 7.98442L11.7286 7.97848L11.7346 7.97254L11.7405 7.96659L11.7465 7.96064L11.7524 7.95468L11.7584 7.94871L11.7644 7.94274L11.7703 7.93676L11.7763 7.93078L11.7823 7.92479L11.7883 7.91879L11.7943 7.91279L11.8003 7.90679L11.8063 7.90077L11.8124 7.89476L11.8184 7.88873L11.8244 7.8827L11.8304 7.87667L11.8365 7.87063L11.8425 7.86458L11.8486 7.85853L11.8546 7.85248L11.8607 7.84642L11.8668 7.84035L11.8728 7.83428L11.8789 7.8282L11.885 7.82212L11.8911 7.81603L11.8972 7.80994L11.9033 7.80384L11.9094 7.79773L11.9155 7.79162L11.9216 7.78551L11.9277 7.77939L11.9338 7.77327L11.94 7.76714L11.9461 7.76101L11.9522 7.75487L11.9584 7.74872L11.9645 7.74258L11.9707 7.73642L11.9768 7.73026L11.983 7.7241L11.9892 7.71794L11.9953 7.71176L12.0015 7.70559L12.0077 7.6994L12.0139 7.69322L12.0201 7.68703L12.0263 7.68083L12.0325 7.67463L12.0387 7.66843L12.0449 7.66222L12.0511 7.65601L12.0573 7.64979L12.0635 7.64357L12.0698 7.63734L12.076 7.63111L12.0822 7.62488L12.0885 7.61864L12.0947 7.6124L12.101 7.60615L12.1072 7.5999L12.1135 7.59364L12.1197 7.58739L12.126 7.58112L12.1323 7.57485L12.1385 7.56858L12.1448 7.56231L12.1511 7.55603L12.1574 7.54975L12.1636 7.54346L12.1699 7.53717L12.1762 7.53087L12.1825 7.52458L12.1888 7.51827L12.1951 7.51197L12.2014 7.50566L12.2078 7.49935L12.2141 7.49303L12.2204 7.48671L12.2267 7.48038L12.233 7.47406L12.2394 7.46773L12.2457 7.46139L12.2521 7.45506L12.2584 7.44871L12.2647 7.44237L12.2711 7.43602L12.2774 7.42967L12.2838 7.42332L12.2901 7.41696L12.2965 7.4106L12.3029 7.40424L12.3092 7.39787L12.3156 7.3915L12.322 7.38513L12.3284 7.37875L12.3347 7.37237L12.3859 7.32124L12.3923 7.31483L12.3987 7.30842L12.4051 7.30201L12.4115 7.2956L12.4179 7.28919L12.4243 7.28277L12.4372 7.26993L12.45 7.25707L12.4629 7.24421L12.4886 7.21846L12.5015 7.20557L12.5144 7.19267L12.5209 7.18622L12.5273 7.17976L12.5338 7.1733L12.5403 7.16685L12.592 7.11511L12.605 7.10216L12.6179 7.0892L12.6309 7.07623L12.6374 7.06975L12.6438 7.06326L12.852 6.85509L12.9564 6.75075L12.9824 6.72467L13.0085 6.69858L13.0346 6.6725L13.0411 6.66598L13.0476 6.65946L13.0542 6.65294L13.0607 6.64643C13.1538 6.55328 13.2826 6.50076 13.4126 6.50209C16.9752 6.53864 19.256 7.0538 20.6348 7.91492C21.9624 8.7441 22.5 9.924 22.5 11.5C22.5 13.2943 22.0824 14.6065 21.4817 15.5718C20.8801 16.5386 20.0771 17.1861 19.2639 17.6218C18.7183 17.9141 18.1702 18.1097 17.6813 18.2404C18.2241 17.723 18.8441 17.0522 19.3633 16.2786C19.9923 15.3414 20.5 14.2134 20.5 13C20.5 11.237 19.7542 10.0869 18.7922 9.39423C17.8556 8.71989 16.7467 8.5 16 8.5H13Z" fill="#EB4868"/>
</svg>
